<?xml version="1.0" standalone="no"?>
<!DOCTYPE svg PUBLIC "-//W3C//DTD SVG 20010904//EN"
 "http://www.w3.org/TR/2001/REC-SVG-20010904/DTD/svg10.dtd">
<svg version="1.0" xmlns="http://www.w3.org/2000/svg"
 width="512.000000pt" height="512.000000pt" viewBox="0 0 512.000000 512.000000"
 preserveAspectRatio="xMidYMid meet">

<g transform="translate(0.000000,512.000000) scale(0.100000,-0.100000)"
fill="#000000" stroke="none">
<path d="M2161 4940 c-71 -15 -167 -65 -221 -116 -48 -45 -120 -166 -120 -203
0 -14 -14 -16 -102 -16 -98 0 -107 -2 -179 -36 -139 -67 -234 -192 -258 -337
-9 -58 -5 -119 14 -194 6 -24 3 -29 -42 -51 -82 -42 -148 -110 -190 -195 -37
-75 -38 -78 -38 -191 0 -96 4 -125 23 -171 48 -120 150 -214 272 -251 l66 -20
13 -59 c7 -33 32 -106 55 -163 110 -274 306 -484 570 -612 531 -258 1176 -101
1509 367 81 113 170 314 192 432 7 33 11 36 74 55 123 37 225 131 273 251 19
46 23 75 23 171 0 113 -1 116 -38 191 -42 85 -108 153 -190 195 -45 22 -48 27
-42 51 57 226 -37 432 -242 530 -74 35 -83 37 -180 37 -89 0 -103 2 -103 16 0
9 -16 48 -35 86 -120 241 -447 316 -655 152 l-50 -39 -50 39 c-27 22 -75 49
-106 60 -64 25 -179 34 -243 21z m163 -164 c65 -20 115 -56 151 -110 53 -80
117 -80 170 0 100 151 314 162 438 24 47 -52 67 -103 67 -169 0 -23 7 -55 15
-70 24 -48 54 -52 148 -20 184 62 368 -71 368 -266 0 -62 -3 -73 -56 -174 -18
-33 -18 -36 1 -70 17 -31 27 -37 89 -52 39 -10 73 -18 76 -18 3 -1 28 -20 54
-43 146 -129 122 -372 -46 -459 l-37 -18 -16 69 c-31 140 -125 271 -243 340
l-58 34 0 80 c0 107 -27 167 -106 240 -65 61 -126 86 -204 86 l-52 0 -23 51
c-29 60 -93 122 -158 151 -36 17 -67 22 -133 22 -77 1 -92 -2 -147 -31 l-62
-32 -62 32 c-55 29 -70 32 -147 31 -66 0 -97 -5 -133 -22 -65 -29 -129 -91
-158 -151 l-23 -51 -52 0 c-78 0 -139 -25 -204 -86 -79 -73 -106 -133 -106
-240 l0 -80 -58 -34 c-127 -75 -226 -221 -252 -373 l-6 -37 -30 16 c-165 85
-204 309 -76 442 42 44 77 62 157 82 57 14 67 20 84 51 19 34 19 37 1 70 -53
102 -56 112 -56 176 0 153 130 284 280 283 20 -1 61 -9 91 -20 87 -31 121 -26
145 21 8 15 15 47 15 70 0 66 20 117 67 169 78 87 181 118 287 86z m83 -536
c15 -6 49 -33 75 -60 64 -69 91 -68 161 4 38 39 63 56 90 61 104 20 197 -52
197 -152 0 -74 53 -114 117 -88 90 38 179 8 221 -75 28 -56 28 -82 -3 -149
-25 -53 -25 -54 -8 -90 15 -30 27 -38 75 -52 105 -31 188 -103 234 -204 36
-77 35 -160 0 -299 -97 -379 -403 -673 -789 -757 -114 -25 -308 -27 -417 -4
-212 44 -378 133 -531 285 -140 139 -227 290 -275 478 -35 136 -35 221 -1 295
48 106 127 176 231 205 90 25 105 60 67 153 -26 63 -24 102 9 157 41 67 131
91 213 57 64 -26 117 14 117 88 0 108 113 185 217 147z"/>
<path d="M1992 2168 c-302 -38 -599 -181 -824 -396 -175 -169 -298 -360 -372
-583 -59 -175 -70 -262 -71 -534 0 -231 1 -242 24 -292 29 -66 111 -143 176
-169 47 -18 81 -19 625 -19 l575 0 57 27 c31 14 77 45 102 68 42 39 106 145
106 177 0 18 5 17 91 -12 l74 -26 81 26 c95 29 94 29 94 12 0 -32 64 -138 106
-177 25 -23 71 -54 102 -68 l57 -27 575 0 c544 0 578 1 625 19 65 26 147 103
176 169 23 50 24 61 24 302 0 273 -7 328 -66 509 -74 225 -185 404 -363 582
-269 269 -581 403 -971 420 -159 7 -172 1 -198 -76 -40 -120 -99 -160 -237
-160 -138 0 -197 40 -237 160 -12 38 -26 59 -43 67 -29 15 -177 15 -288 1z
m207 -191 c29 -59 104 -132 171 -165 52 -25 63 -27 190 -27 128 0 138 2 192
28 68 33 139 103 169 165 l22 44 91 -7 c584 -44 1053 -451 1181 -1025 12 -54
18 -141 21 -305 5 -226 5 -231 -18 -270 -15 -26 -39 -48 -68 -63 l-45 -23
-540 3 -540 3 -48 28 c-63 37 -91 90 -92 174 0 52 4 68 30 105 18 25 49 52 75
66 43 21 52 22 378 22 l334 0 29 29 c49 50 39 88 -36 135 -38 25 -59 47 -75
81 -23 47 -23 52 -4 152 12 66 -72 108 -128 63 -50 -38 -62 -174 -24 -265 l15
-35 -130 0 -130 0 15 28 c23 45 46 146 46 205 0 190 -109 375 -265 451 -47 23
-78 30 -141 34 -100 5 -160 -12 -250 -74 l-64 -44 -64 44 c-91 62 -150 79
-250 74 -104 -6 -178 -39 -255 -117 -95 -96 -151 -228 -151 -359 0 -67 21
-166 46 -214 l15 -28 -130 0 -130 0 15 35 c38 91 26 227 -24 265 -56 45 -140
3 -128 -63 19 -100 19 -105 -4 -152 -16 -34 -37 -56 -75 -81 -73 -46 -84 -81
-41 -131 l24 -28 349 -5 350 -5 42 -28 c74 -49 110 -161 78 -240 -19 -44 -87
-103 -134 -116 -25 -7 -222 -11 -558 -11 -486 0 -523 2 -561 19 -23 10 -52 34
-65 52 -24 34 -24 37 -24 264 0 184 4 247 18 315 38 177 108 341 210 489 62
91 196 227 292 298 199 148 475 243 727 252 45 1 47 0 67 -42z m166 -551 c58
-27 88 -57 109 -108 38 -90 143 -91 171 0 20 68 122 132 210 132 210 -1 330
-278 218 -500 -26 -50 -33 -56 -88 -75 -33 -12 -73 -28 -90 -37 -43 -23 -109
-95 -135 -146 -18 -37 -32 -49 -88 -75 -88 -41 -136 -41 -224 0 -56 26 -70 38
-88 75 -26 51 -92 123 -135 146 -16 9 -57 25 -90 37 -56 19 -62 25 -87 75
-139 273 74 591 317 476z"/>
</g>
</svg>
