<?xml version="1.0" standalone="no"?>
<!DOCTYPE svg PUBLIC "-//W3C//DTD SVG 20010904//EN"
 "http://www.w3.org/TR/2001/REC-SVG-20010904/DTD/svg10.dtd">
<svg version="1.0" xmlns="http://www.w3.org/2000/svg"
 width="512.000000pt" height="512.000000pt" viewBox="0 0 512.000000 512.000000"
 preserveAspectRatio="xMidYMid meet">

<g transform="translate(0.000000,512.000000) scale(0.100000,-0.100000)"
fill="#000000" stroke="none">
<path d="M19 5089 c-20 -20 -21 -29 -16 -108 4 -47 18 -302 33 -566 15 -264
31 -490 35 -503 12 -32 53 -46 87 -28 15 8 79 67 142 130 l114 115 136 -133
c122 -120 140 -134 186 -145 39 -9 61 -10 100 0 45 11 64 27 230 193 171 170
182 184 194 233 10 43 9 61 -4 105 -14 47 -30 68 -145 183 l-130 129 130 133
c110 112 130 137 127 159 -7 60 -4 60 -593 93 -297 17 -555 31 -572 31 -20 0
-41 -8 -54 -21z m564 -134 c237 -14 433 -28 436 -31 3 -2 -39 -48 -92 -102
-78 -78 -97 -103 -97 -126 0 -24 27 -57 155 -186 127 -129 155 -162 155 -186
0 -23 -28 -56 -163 -191 -135 -136 -168 -163 -192 -163 -24 0 -56 27 -186 156
-125 124 -163 157 -184 157 -21 0 -50 -23 -126 -99 -54 -54 -100 -96 -102 -93
-3 2 -14 180 -26 394 -12 215 -24 414 -27 443 -4 36 -2 52 6 52 6 0 206 -11
443 -25z"/>
<path d="M4435 5078 c-545 -32 -546 -32 -553 -92 -3 -22 17 -47 124 -156 l128
-130 -122 -123 c-156 -158 -180 -207 -151 -312 9 -32 44 -74 177 -208 92 -93
184 -177 204 -188 45 -23 124 -25 175 -4 21 9 91 69 163 140 l126 125 114
-116 c63 -63 127 -122 142 -130 34 -18 75 -4 87 28 4 13 20 239 35 503 15 264
29 519 33 566 5 79 4 88 -16 108 -27 27 -26 27 -666 -11z m551 -150 c-3 -29
-15 -228 -27 -443 -12 -214 -23 -392 -25 -394 -3 -3 -51 41 -108 97 -57 56
-111 102 -121 102 -10 0 -86 -67 -169 -149 -83 -83 -164 -155 -179 -160 -42
-16 -65 0 -229 166 -131 132 -148 153 -148 182 0 30 18 52 155 190 114 116
155 164 155 181 0 18 -28 53 -97 122 -53 54 -95 100 -92 102 5 5 727 52 842
55 l48 1 -5 -52z"/>
<path d="M2155 4026 c-167 -46 -400 -157 -439 -209 l-20 -27 34 -67 c49 -94
52 -168 13 -243 -71 -135 -221 -174 -360 -93 -59 34 -85 26 -127 -40 -75 -117
-130 -247 -172 -402 -23 -88 -24 -91 -6 -115 11 -14 37 -29 65 -36 129 -33
206 -137 194 -262 -11 -123 -69 -183 -222 -229 -50 -14 -58 -47 -34 -134 57
-208 179 -459 229 -472 12 -3 42 6 77 25 106 56 216 48 297 -23 92 -81 110
-202 47 -314 -22 -39 -29 -63 -25 -80 18 -72 472 -265 567 -241 25 6 32 20 57
103 28 93 126 163 229 163 113 0 206 -71 238 -180 27 -95 44 -103 157 -74 93
24 186 59 284 107 192 96 204 112 150 204 -29 51 -33 67 -33 128 1 52 6 80 22
110 66 125 214 170 339 105 87 -46 108 -41 161 45 57 94 127 260 159 379 24
90 24 99 10 122 -9 13 -29 26 -44 30 -143 30 -232 140 -219 270 11 108 76 181
192 215 83 25 92 43 69 132 -41 158 -141 386 -201 458 -32 37 -52 37 -122 -3
-47 -27 -66 -32 -121 -32 -144 0 -244 100 -245 244 0 56 5 74 35 127 29 54 32
65 22 87 -26 59 -278 180 -479 231 -67 17 -73 17 -97 2 -16 -11 -27 -30 -32
-54 -22 -125 -120 -207 -244 -207 -113 0 -204 70 -235 181 -17 59 -44 94 -74
92 -9 0 -52 -10 -96 -23z m70 -170 c131 -276 535 -277 670 -2 l26 54 42 -13
c73 -22 170 -61 236 -94 55 -28 62 -35 56 -54 -29 -91 -37 -154 -25 -216 33
-187 179 -312 364 -313 39 0 91 7 116 16 25 9 50 16 57 16 22 0 143 -276 143
-327 0 -7 -20 -22 -45 -34 -106 -50 -184 -154 -206 -277 -29 -152 61 -326 202
-394 27 -12 49 -29 49 -36 0 -35 -107 -297 -134 -329 -1 -1 -31 7 -66 18 -140
45 -288 4 -389 -106 -65 -71 -93 -145 -95 -245 0 -50 5 -90 17 -122 10 -26 16
-52 12 -58 -14 -22 -287 -140 -324 -140 -6 0 -23 25 -37 55 -34 69 -107 138
-182 173 -49 23 -70 27 -152 27 -88 0 -101 -3 -162 -33 -77 -38 -146 -108
-174 -177 -18 -42 -21 -45 -49 -39 -44 9 -224 81 -273 110 -29 17 -42 31 -38
40 62 162 38 300 -74 418 -97 102 -247 141 -375 98 -33 -11 -64 -18 -69 -15
-22 14 -136 290 -136 329 0 7 10 16 23 19 42 13 127 78 161 124 19 25 44 75
56 111 56 166 -26 364 -184 444 -31 16 -56 33 -56 40 1 23 58 174 95 249 39
77 50 86 84 67 34 -17 129 -27 191 -19 144 20 262 124 304 268 25 84 21 131
-19 258 -6 19 2 26 78 63 69 33 130 57 254 99 1 1 14 -24 28 -53z"/>
<path d="M2415 3234 c-38 -8 -112 -35 -164 -60 -162 -79 -300 -237 -353 -407
-120 -386 101 -787 491 -888 94 -25 250 -26 336 -4 94 24 233 97 302 160 187
169 271 435 212 682 -6 26 -31 90 -56 142 -38 79 -59 108 -131 181 -73 74
-102 94 -182 133 -151 74 -299 93 -455 61z m280 -129 c202 -52 364 -212 415
-409 50 -196 -4 -399 -143 -540 -113 -115 -245 -170 -407 -170 -299 0 -538
222 -566 524 -9 93 10 189 57 289 68 146 210 263 369 305 73 19 201 20 275 1z"/>
<path d="M710 1244 c-19 -8 -94 -73 -165 -144 l-130 -130 -130 130 c-141 141
-165 154 -202 107 -16 -21 -22 -85 -51 -596 -32 -543 -32 -574 -16 -592 23
-26 89 -25 694 10 480 28 495 30 512 51 10 12 18 31 18 43 0 13 -48 69 -130
151 l-130 132 126 124 c69 69 132 138 140 153 8 15 18 50 21 77 10 83 -22 132
-200 308 -100 98 -170 159 -198 172 -52 23 -111 25 -159 4z m268 -277 c134
-135 162 -167 162 -191 0 -24 -27 -56 -155 -186 -125 -127 -155 -162 -155
-185 0 -22 21 -49 97 -126 62 -64 91 -100 82 -103 -16 -5 -773 -47 -837 -46
l-43 0 6 63 c7 83 45 745 45 793 l0 38 104 -102 c81 -80 109 -102 131 -102 23
0 58 29 185 155 130 129 162 155 186 155 24 0 56 -27 192 -163z"/>
<path d="M4250 1243 c-44 -21 -351 -326 -376 -373 -11 -21 -18 -57 -18 -90 -1
-76 28 -120 168 -260 l116 -114 -130 -132 c-82 -82 -130 -138 -130 -151 0 -12
8 -31 18 -43 17 -21 32 -23 512 -51 605 -35 671 -36 694 -10 16 18 16 49 -16
592 -29 511 -35 575 -51 596 -37 46 -61 34 -199 -104 l-127 -127 -128 125
c-70 69 -144 133 -165 142 -46 21 -123 21 -168 0z m279 -268 c113 -111 164
-155 181 -155 16 0 55 31 126 102 l104 102 0 -38 c0 -48 38 -710 45 -793 l6
-63 -43 0 c-65 -1 -821 42 -837 46 -10 3 18 38 82 102 79 80 97 103 97 127 0
26 -22 52 -141 170 -137 137 -169 176 -169 211 0 10 73 91 162 181 146 147
166 163 196 163 31 0 51 -16 191 -155z"/>
</g>
</svg>
