<?xml version="1.0" standalone="no"?>
<!DOCTYPE svg PUBLIC "-//W3C//DTD SVG 20010904//EN"
 "http://www.w3.org/TR/2001/REC-SVG-20010904/DTD/svg10.dtd">
<svg version="1.0" xmlns="http://www.w3.org/2000/svg"
 width="512.000000pt" height="512.000000pt" viewBox="0 0 512.000000 512.000000"
 preserveAspectRatio="xMidYMid meet">

<g transform="translate(0.000000,512.000000) scale(0.100000,-0.100000)"
fill="#000000" stroke="none">
<path d="M672 5030 c-251 -46 -476 -244 -559 -495 -23 -71 -26 -96 -26 -215
-1 -118 3 -145 25 -212 50 -150 127 -258 260 -365 100 -80 102 -83 109 -247 5
-126 9 -147 32 -192 38 -75 69 -107 139 -145 58 -31 70 -34 148 -34 78 0 90 3
148 34 70 38 101 70 139 145 23 45 27 66 32 192 7 156 13 172 78 221 73 54
188 179 226 243 21 36 49 101 64 145 23 71 26 96 26 215 0 119 -3 144 -26 215
-39 117 -91 199 -187 295 -93 93 -198 155 -315 186 -73 19 -241 26 -313 14z
m251 -165 c135 -28 285 -135 353 -250 98 -167 109 -361 30 -530 -44 -93 -89
-148 -183 -221 -91 -70 -137 -132 -154 -209 -12 -55 -12 -55 -51 -55 l-38 0 0
249 0 249 30 12 c68 28 130 129 130 210 0 124 -116 240 -240 240 -124 0 -240
-116 -240 -240 0 -81 62 -182 130 -210 l30 -12 0 -249 0 -249 -39 0 -40 0 -11
55 c-15 72 -61 139 -135 195 -95 71 -153 138 -196 225 -206 418 164 888 624
790z m-68 -490 c50 -49 15 -135 -55 -135 -41 0 -80 39 -80 80 0 41 39 80 80
80 19 0 40 -9 55 -25z m101 -967 c-7 -39 -31 -74 -70 -102 -39 -29 -133 -29
-172 0 -39 28 -63 63 -70 102 l-6 32 162 0 163 0 -7 -32z"/>
<path d="M2445 5028 c-90 -17 -204 -80 -279 -154 -219 -219 -220 -568 -2 -786
114 -114 233 -163 396 -163 159 0 284 50 391 158 112 112 164 237 164 397 0
162 -49 281 -162 395 -130 132 -320 189 -508 153z m279 -186 c91 -42 149 -100
194 -190 35 -72 37 -81 37 -172 0 -91 -2 -100 -37 -172 -45 -91 -103 -147
-196 -191 -61 -29 -76 -32 -162 -32 -86 0 -101 3 -162 32 -93 44 -151 100
-196 191 -35 72 -37 81 -37 171 0 87 3 102 32 163 40 85 97 147 172 186 78 42
122 52 213 48 61 -3 92 -11 142 -34z"/>
<path d="M2608 4563 l-128 -128 -48 48 c-26 26 -52 47 -58 47 -13 0 -104 -93
-104 -106 0 -5 47 -56 105 -114 l105 -105 185 185 c102 102 185 190 185 195 0
13 -92 105 -105 105 -6 0 -67 -57 -137 -127z"/>
<path d="M3910 4945 c-17 -52 -35 -95 -38 -95 -4 0 -41 18 -82 40 -41 22 -82
40 -90 40 -8 0 -83 -67 -165 -150 l-150 -150 43 -85 c23 -47 42 -89 42 -94 0
-5 -43 -24 -95 -41 l-95 -32 0 -218 0 -218 95 -32 c52 -17 95 -36 95 -41 0 -5
-19 -47 -42 -94 l-43 -85 153 -152 152 -153 85 43 c47 23 89 42 94 42 5 0 24
-43 41 -95 l32 -95 218 0 218 0 32 95 c17 52 36 95 41 95 5 0 47 -19 94 -42
l85 -43 152 153 153 152 -43 85 c-23 47 -42 89 -42 94 0 5 43 24 95 41 l95 32
0 218 0 218 -95 32 c-52 17 -95 36 -95 41 0 5 19 47 42 94 l43 85 -153 152
-152 153 -85 -43 c-47 -23 -89 -42 -94 -42 -5 0 -24 43 -41 95 l-32 95 -218 0
-218 0 -32 -95z m384 -159 c31 -89 31 -90 80 -110 l48 -19 86 42 85 43 74 -75
75 -74 -43 -85 -42 -86 19 -48 c20 -49 21 -49 110 -80 l89 -31 0 -103 0 -103
-89 -31 c-89 -31 -90 -31 -110 -80 l-19 -48 42 -86 43 -85 -75 -74 -74 -75
-85 43 -86 42 -48 -19 c-49 -20 -49 -21 -80 -110 l-31 -89 -103 0 -103 0 -31
89 c-31 89 -31 90 -80 110 l-48 19 -86 -42 -85 -43 -74 75 -75 74 43 85 42 86
-19 48 c-20 49 -21 49 -110 80 l-89 31 0 103 0 103 89 31 c89 31 90 31 110 80
l19 48 -42 86 -43 85 75 74 74 75 85 -43 86 -42 48 19 c47 20 50 23 76 95 14
41 28 82 31 92 5 16 17 17 108 15 l102 -3 31 -89z"/>
<path d="M4066 4550 c-63 -16 -153 -70 -197 -117 -22 -24 -55 -74 -72 -111
-29 -61 -32 -76 -32 -163 0 -90 2 -99 37 -171 45 -91 103 -147 196 -191 61
-29 76 -32 162 -32 86 0 101 3 162 32 93 44 151 100 196 191 35 72 37 81 37
172 0 91 -2 100 -37 172 -68 136 -188 217 -336 224 -42 2 -94 -1 -116 -6z
m168 -162 c86 -26 166 -136 166 -228 0 -124 -116 -240 -240 -240 -63 0 -114
23 -165 75 -102 101 -102 229 0 330 70 71 145 90 239 63z"/>
<path d="M2340 3741 c-304 -65 -565 -281 -671 -556 -60 -155 -69 -225 -69
-577 l0 -316 -50 -37 c-88 -65 -150 -165 -176 -284 -33 -156 -6 -287 87 -423
27 -40 35 -60 27 -63 -7 -2 -68 -12 -135 -21 -100 -14 -125 -15 -137 -4 -14
11 -16 60 -16 379 l0 367 51 49 c80 79 104 127 104 210 0 89 -32 148 -105 196
-41 27 -50 37 -50 62 0 89 -74 193 -157 221 -57 20 -256 22 -317 4 -55 -16
-138 -99 -154 -154 -9 -31 -12 -222 -12 -746 0 -672 1 -708 20 -783 65 -254
293 -435 550 -435 41 0 163 11 270 25 107 14 196 25 198 25 1 0 2 -180 2 -400
l0 -400 960 0 960 0 0 400 c0 220 1 400 3 400 1 0 90 -11 197 -25 225 -29 322
-31 404 -10 75 20 178 74 238 125 62 54 142 174 170 258 23 67 23 69 26 792 2
539 0 736 -9 768 -17 61 -87 136 -146 156 -57 20 -256 22 -317 4 -84 -25 -166
-136 -166 -225 0 -25 -9 -35 -50 -62 -73 -48 -105 -107 -105 -196 0 -83 24
-131 104 -210 l51 -49 0 -366 c0 -271 -3 -369 -12 -378 -7 -7 -27 -12 -44 -12
-29 0 -36 5 -58 50 -36 71 -69 110 -169 196 -48 42 -95 90 -104 107 -20 40
-13 142 21 282 32 131 46 229 46 310 0 128 -50 282 -125 386 -28 40 -35 58
-35 97 0 68 -33 215 -67 303 -56 144 -180 305 -308 399 -208 153 -479 213
-725 161z m375 -166 c207 -56 390 -207 485 -400 51 -105 70 -178 77 -305 6
-103 7 -106 43 -150 48 -57 86 -134 107 -213 21 -84 12 -216 -27 -377 -16 -69
-33 -169 -36 -222 -11 -150 15 -199 175 -339 46 -40 79 -75 74 -76 -9 -3 -574
80 -630 92 -21 5 -23 11 -23 78 l0 72 58 61 c69 74 114 148 150 246 l27 73 3
383 3 382 -249 0 c-349 0 -462 23 -638 130 -37 22 -73 40 -79 38 -7 -2 -80
-48 -164 -103 l-151 -100 0 -335 c0 -367 6 -417 58 -531 52 -113 134 -209 241
-279 21 -14 22 -18 11 -63 -8 -29 -27 -64 -50 -90 l-38 -42 74 -77 c60 -63 76
-87 90 -134 45 -154 -32 -354 -184 -480 -36 -30 -71 -54 -78 -54 -7 0 -28 22
-48 49 -20 27 -55 65 -78 86 -123 108 -208 200 -224 242 -17 44 -15 146 3 164
5 5 38 -10 73 -33 71 -44 256 -138 274 -138 12 0 64 136 56 143 -3 3 -52 28
-110 57 -212 106 -368 238 -431 365 -31 64 -34 77 -34 160 1 77 5 99 29 152
34 74 93 132 159 158 l47 18 0 364 c0 392 6 454 55 576 95 233 301 405 551
461 85 19 261 15 349 -9z m-402 -746 c159 -81 303 -109 555 -109 l172 0 0
-268 c0 -205 -3 -281 -15 -325 -45 -173 -178 -307 -350 -352 -250 -65 -513 94
-580 350 -12 47 -15 121 -15 346 l0 286 78 52 c42 28 81 51 85 51 4 0 36 -14
70 -31z m-1298 -54 c22 -22 25 -32 25 -104 l0 -81 70 -35 c110 -55 116 -89 33
-176 l-56 -59 -184 0 -183 0 0 215 c0 216 0 216 25 240 23 24 31 25 135 25
104 0 112 -1 135 -25z m3360 0 c25 -24 25 -24 25 -240 l0 -215 -183 0 -184 0
-56 59 c-83 87 -77 121 33 176 l70 35 0 81 c0 72 3 82 25 104 23 24 31 25 135
25 104 0 112 -1 135 -25z m-3333 -983 l3 -368 27 -41 c33 -50 86 -84 142 -90
23 -3 104 4 179 16 75 12 138 21 141 21 2 0 0 -17 -5 -37 -14 -61 -10 -144 11
-203 10 -30 18 -55 17 -56 -18 -10 -398 -45 -452 -42 -131 9 -267 94 -328 206
-54 99 -57 132 -57 564 l0 398 160 0 159 0 3 -368z m3358 -30 c0 -432 -3 -465
-57 -564 -36 -67 -111 -133 -190 -171 -93 -43 -174 -45 -428 -13 -110 14 -237
26 -282 26 l-83 0 0 -400 0 -400 -244 0 -244 0 -6 37 c-3 21 -19 148 -36 283
-17 135 -33 256 -36 270 -4 20 8 12 64 -43 l69 -68 74 336 c41 185 76 340 79
345 3 4 176 -19 385 -51 209 -32 398 -59 421 -59 56 0 122 37 159 89 l30 43 3
369 3 369 159 0 160 0 0 -398z m-1737 -344 c-108 -108 -143 -138 -164 -138
-23 0 -28 5 -34 37 -7 40 -53 133 -86 174 -20 25 -20 27 -3 78 16 49 19 52 43
47 74 -18 191 -18 267 -1 43 9 86 21 94 25 12 7 16 0 18 -37 l3 -46 -138 -139z
m253 -5 c-3 -10 -22 -96 -42 -190 -21 -95 -41 -173 -44 -173 -3 0 -39 34 -80
75 l-75 75 115 115 c63 63 118 115 123 115 5 0 6 -8 3 -17z m-349 -335 l41
-43 46 -365 c25 -201 48 -380 51 -397 l6 -33 -151 0 c-113 0 -150 3 -150 13
-1 6 14 204 32 440 l32 427 26 0 c17 0 39 -14 67 -42z m-697 -370 c21 -26 48
-77 60 -113 12 -36 24 -65 26 -65 3 0 33 14 67 31 80 40 172 102 220 147 45
44 43 66 20 -240 l-17 -228 -243 0 -243 0 0 292 0 292 36 -35 c20 -18 53 -55
74 -81z"/>
</g>
</svg>
