<?xml version="1.0" standalone="no"?>
<!DOCTYPE svg PUBLIC "-//W3C//DTD SVG 20010904//EN"
 "http://www.w3.org/TR/2001/REC-SVG-20010904/DTD/svg10.dtd">
<svg version="1.0" xmlns="http://www.w3.org/2000/svg"
 width="512.000000pt" height="512.000000pt" viewBox="0 0 512.000000 512.000000"
 preserveAspectRatio="xMidYMid meet">

<g transform="translate(0.000000,512.000000) scale(0.100000,-0.100000)"
fill="#000000" stroke="none">
<path d="M2393 5026 c-101 -20 -165 -42 -267 -94 -437 -224 -633 -722 -466
-1185 50 -136 118 -237 248 -366 160 -159 165 -171 172 -411 6 -181 6 -186 37
-252 17 -37 50 -87 73 -112 52 -56 160 -112 235 -121 l55 -7 0 -197 0 -197
-72 35 -72 36 -249 3 -250 4 5 -90 c10 -163 85 -280 226 -350 l76 -37 168 -4
168 -3 0 -437 0 -437 -72 35 -72 36 -249 3 -250 4 5 -92 c5 -79 10 -101 42
-164 43 -88 102 -146 194 -189 66 -31 71 -32 235 -35 l167 -4 0 -79 0 -79
-680 0 -680 0 0 359 0 359 218 4 c190 4 224 7 275 26 89 33 160 77 222 139
103 103 154 220 162 376 l6 99 -299 -4 c-276 -4 -303 -6 -357 -26 -75 -28
-156 -74 -186 -106 -14 -14 -28 -26 -33 -26 -4 0 -8 54 -8 120 0 104 2 120 16
120 77 0 189 88 212 166 7 24 12 101 12 183 0 165 8 192 71 242 83 65 194 184
232 249 21 36 49 101 64 145 23 71 26 96 26 215 0 119 -3 144 -26 215 -39 117
-91 199 -187 295 -67 67 -103 94 -170 128 -124 62 -192 77 -340 76 -113 0
-133 -3 -213 -31 -121 -43 -189 -85 -282 -178 -91 -91 -144 -175 -182 -290
-23 -71 -26 -96 -26 -215 -1 -118 3 -145 25 -212 50 -151 145 -278 297 -397
63 -50 71 -77 71 -242 0 -82 5 -159 12 -183 23 -78 135 -166 212 -166 15 0 16
-37 16 -400 0 -220 -2 -400 -4 -400 -2 0 -23 16 -47 36 -48 40 -98 67 -179 97
-50 19 -82 21 -353 25 l-297 4 0 -64 c0 -158 57 -301 160 -406 70 -70 122
-104 219 -141 61 -23 81 -25 284 -29 l217 -4 0 -79 0 -79 -280 0 -280 0 0 -80
0 -80 2160 0 2160 0 0 80 0 80 -280 0 -280 0 0 359 0 359 218 4 c190 4 224 7
275 26 89 33 160 77 222 139 103 103 154 220 162 376 l6 99 -299 -4 c-276 -4
-303 -6 -357 -26 -75 -28 -156 -74 -186 -106 -14 -14 -28 -26 -33 -26 -4 0 -8
54 -8 120 0 104 2 120 16 120 77 0 189 88 212 166 7 24 12 101 12 183 0 165 8
192 71 242 83 65 194 184 232 249 21 36 49 101 64 145 23 71 26 96 26 215 0
119 -3 144 -26 215 -39 117 -91 199 -187 295 -67 67 -103 94 -170 128 -124 62
-192 77 -340 76 -113 0 -133 -3 -213 -31 -121 -43 -189 -85 -282 -178 -91 -91
-144 -175 -182 -290 -23 -71 -26 -96 -26 -215 -1 -118 3 -145 25 -212 50 -151
145 -278 297 -397 63 -50 71 -77 71 -242 0 -82 5 -159 12 -183 23 -78 135
-166 212 -166 15 0 16 -37 16 -400 0 -220 -2 -400 -4 -400 -2 0 -23 16 -47 36
-48 40 -98 67 -179 97 -50 19 -82 21 -352 25 l-298 4 0 -64 c0 -158 57 -301
160 -406 70 -70 122 -104 219 -141 61 -23 81 -25 284 -29 l217 -4 0 -79 0 -79
-680 0 -680 0 0 399 0 399 168 4 c163 3 168 4 234 35 92 43 151 101 194 189
32 63 37 85 42 164 l5 92 -250 -4 -249 -3 -72 -36 -72 -35 0 117 0 117 178 4
c147 4 187 9 235 26 89 32 159 77 221 138 103 103 154 221 163 377 l6 99 -259
-4 c-234 -4 -265 -6 -317 -26 -68 -25 -159 -75 -178 -98 -7 -8 -21 -20 -31
-25 -17 -9 -18 -2 -18 149 l0 160 55 7 c75 9 183 65 235 121 23 25 56 75 73
112 31 66 31 71 37 257 8 241 10 245 170 404 160 160 238 292 287 487 24 95
24 333 0 428 -90 358 -359 630 -709 717 -108 26 -297 33 -395 15z m372 -171
c522 -143 760 -759 466 -1207 -26 -40 -95 -120 -154 -177 -128 -126 -163 -185
-192 -323 -5 -28 -7 -28 -80 -28 l-75 0 0 43 c0 23 9 168 20 322 11 154 20
297 20 318 l0 37 71 0 c102 0 145 16 204 75 102 101 102 229 0 330 -102 102
-238 102 -340 0 -54 -53 -75 -102 -75 -173 0 -67 -5 -72 -70 -72 -65 0 -70 5
-70 72 0 71 -21 120 -75 173 -53 53 -102 75 -170 75 -68 0 -117 -22 -170 -75
-102 -101 -102 -229 0 -330 59 -59 102 -75 204 -75 l71 0 0 -37 c0 -21 9 -164
20 -318 11 -154 20 -299 20 -322 l0 -43 -75 0 c-73 0 -75 0 -81 28 -31 141
-72 209 -204 337 -190 183 -265 352 -264 595 0 180 38 308 132 446 51 76 171
190 250 238 70 42 199 92 275 106 73 13 270 4 342 -15z m-464 -714 c18 -14 24
-32 29 -80 l6 -61 -64 0 c-53 0 -67 4 -87 25 -73 72 35 181 116 116z m634 -6
c16 -15 25 -36 25 -55 0 -19 -9 -40 -25 -55 -20 -21 -34 -25 -87 -25 l-64 0 6
61 c5 48 11 66 29 80 33 27 86 25 116 -6z m-325 -307 c1 -49 -45 -708 -50
-708 -5 0 -51 659 -50 708 0 8 17 12 50 12 33 0 50 -4 50 -12z m-1447 -403
c189 -40 346 -186 413 -385 26 -77 26 -244 0 -320 -45 -132 -99 -207 -213
-296 -91 -70 -137 -132 -154 -209 -12 -55 -12 -55 -51 -55 l-38 0 0 249 0 249
30 12 c68 28 130 129 130 210 0 124 -116 240 -240 240 -63 0 -114 -23 -165
-75 -71 -70 -91 -146 -63 -237 14 -48 76 -121 118 -138 l30 -12 0 -249 0 -249
-39 0 -40 0 -11 55 c-15 72 -61 139 -135 195 -169 127 -254 285 -255 472 0
141 62 290 165 391 140 139 325 193 518 152z m3040 0 c189 -40 346 -186 413
-385 26 -77 26 -244 0 -320 -45 -132 -99 -207 -213 -296 -91 -70 -137 -132
-154 -209 -12 -55 -12 -55 -51 -55 l-38 0 0 249 0 249 30 12 c42 17 104 90
118 138 28 91 8 167 -63 237 -51 52 -102 75 -165 75 -124 0 -240 -116 -240
-240 0 -81 62 -182 130 -210 l30 -12 0 -249 0 -249 -39 0 -40 0 -11 55 c-15
72 -61 139 -135 195 -169 127 -254 285 -255 472 0 141 62 290 165 391 140 139
325 193 518 152z m-3108 -490 c50 -49 15 -135 -55 -135 -41 0 -80 39 -80 80 0
41 39 80 80 80 19 0 40 -9 55 -25z m1785 -31 c0 -87 -18 -133 -75 -189 -63
-64 -100 -75 -245 -75 -145 0 -182 11 -245 75 -57 56 -75 102 -75 189 l0 56
320 0 320 0 0 -56z m1255 31 c16 -15 25 -36 25 -55 0 -19 -9 -40 -25 -55 -15
-16 -36 -25 -55 -25 -19 0 -40 9 -55 25 -16 15 -25 36 -25 55 0 19 9 40 25 55
15 16 36 25 55 25 19 0 40 -9 55 -25z m-865 -789 c0 -7 -16 -45 -35 -83 -43
-86 -103 -144 -193 -186 -65 -31 -71 -32 -229 -35 -138 -4 -163 -2 -163 11 0
33 73 157 114 195 49 45 126 88 183 101 21 5 102 9 181 10 114 1 142 -2 142
-13z m-2070 -201 c0 -46 -4 -60 -25 -80 -23 -24 -31 -25 -135 -25 -104 0 -112
1 -135 25 -21 20 -25 34 -25 80 l0 55 160 0 160 0 0 -55z m1114 43 c45 -13
146 -105 146 -132 0 -14 -18 -16 -126 -16 -160 0 -195 10 -261 77 -80 79 -77
83 73 83 70 0 145 -5 168 -12z m1926 -43 c0 -46 -4 -60 -25 -80 -23 -24 -31
-25 -135 -25 -104 0 -112 1 -135 25 -21 20 -25 34 -25 80 l0 55 160 0 160 0 0
-55z m-2410 -519 c0 -7 -16 -45 -35 -83 -43 -86 -103 -144 -193 -186 l-67 -32
-202 -3 c-173 -3 -203 -2 -203 11 0 33 73 157 114 195 49 45 126 88 183 101
21 5 120 9 221 10 148 1 182 -2 182 -13z m3040 0 c0 -7 -16 -45 -35 -83 -43
-86 -103 -144 -193 -186 l-67 -32 -202 -3 c-173 -3 -203 -2 -203 11 0 33 73
157 114 195 49 45 126 88 183 101 21 5 120 9 221 10 148 1 182 -2 182 -13z
m-1770 -82 c0 -27 -101 -119 -146 -132 -23 -7 -98 -12 -168 -12 -108 0 -126 2
-126 16 0 24 101 119 140 131 19 6 95 11 168 12 113 1 132 -1 132 -15z m-2378
-501 c90 -42 150 -100 193 -186 19 -38 35 -76 35 -84 0 -13 -30 -14 -202 -11
l-203 3 -67 32 c-90 42 -150 100 -193 186 -19 38 -35 76 -35 84 0 13 30 14
203 11 l202 -3 67 -32z m3040 0 c90 -42 150 -100 193 -186 19 -38 35 -76 35
-84 0 -13 -30 -14 -202 -11 l-203 3 -67 32 c-90 42 -150 100 -193 186 -19 38
-35 76 -35 84 0 13 30 14 203 11 l202 -3 67 -32z m-1448 -135 c45 -13 146
-105 146 -132 0 -14 -18 -16 -126 -16 -160 0 -195 10 -261 77 -80 79 -77 83
73 83 70 0 145 -5 168 -12z"/>
<path d="M80 160 l0 -80 80 0 80 0 0 80 0 80 -80 0 -80 0 0 -80z"/>
<path d="M4880 160 l0 -80 80 0 80 0 0 80 0 80 -80 0 -80 0 0 -80z"/>
</g>
</svg>
